<svg width="24" height="24" viewBox="0 0 24 24" fill="none" xmlns="http://www.w3.org/2000/svg">
<path d="M22.3266 0C22.0282 0 21.7167 0.0632812 21.42 0.198422C19.2783 1.17623 17.6906 1.50811 16.3669 1.50811C13.5563 1.50811 11.9227 0.0146719 8.68406 0.0142031C7.06078 0.0142031 5.03391 0.389344 2.25281 1.51655V1.125C2.25 0.503906 1.74609 0 1.125 0C0.503906 0 0 0.503906 0 1.125V22.875C0 23.4984 0.503906 24 1.125 24C1.74609 24 2.25 23.4961 2.25 22.875V18C4.76203 16.8816 6.75094 16.5089 8.475 16.5089C11.9264 16.5089 14.3297 17.9986 17.7844 17.9986C19.2802 17.9986 20.9728 17.7187 22.9922 16.9163C23.6297 16.6828 24 16.1438 24 15.5672V1.44047C24 0.520313 23.2172 0 22.3266 0ZM21.75 14.9906C20.3292 15.4978 19.0275 15.7453 17.7844 15.7453C16.3406 15.7453 15.0511 15.4172 13.6856 15.0698C12.1852 14.6882 10.4845 14.2556 8.47781 14.2556C6.49266 14.2556 4.44703 14.6817 2.25281 15.5555V3.94406L3.09797 3.60183C5.31937 2.70183 7.14703 2.26402 8.68547 2.26402C10.0092 2.2642 10.988 2.57859 12.1219 2.94277C13.3116 3.3247 14.6592 3.75792 16.3678 3.75792C18.0286 3.75792 19.7541 3.35967 21.7537 2.51058V14.9906H21.75Z" fill="black"/>
</svg>
