<svg width="24" height="24" viewBox="0 0 24 24" fill="none" xmlns="http://www.w3.org/2000/svg">
<path d="M20.4556 0H3.52653C1.55275 0 0 1.54904 0 3.52197V20.4443C0 22.4172 1.55275 24 3.52653 24H20.4556C22.4294 24 24 22.4172 24 20.4443V3.52197C24 1.54904 22.4294 0 20.4556 0ZM21.9623 20.4443C21.9623 21.2567 21.2683 21.9178 20.4556 21.9178H3.52653C2.71381 21.9178 2.03774 21.2567 2.03774 20.4443V3.52197C2.03774 2.70959 2.71381 2.08219 3.52653 2.08219H20.4556C21.2683 2.08219 21.9623 2.70959 21.9623 3.52197V20.4443Z" fill="black"/>
<path d="M17.9867 8.54796H10.1252C9.54381 8.54796 9.07242 8.953 9.07242 9.53426C9.07242 10.1155 9.5437 10.5206 10.1252 10.5206H17.9867C18.5682 10.5206 19.0396 10.1155 19.0396 9.53426C19.0396 8.953 18.5682 8.54796 17.9867 8.54796Z" fill="black"/>
<path d="M6.21418 10.5906C6.79564 10.5906 7.26701 10.1194 7.26701 9.53819C7.26701 8.95698 6.79564 8.48581 6.21418 8.48581C5.63271 8.48581 5.16135 8.95698 5.16135 9.53819C5.16135 10.1194 5.63271 10.5906 6.21418 10.5906Z" fill="black"/>
<path d="M17.9867 12.6028H10.1252C9.54381 12.6028 9.07242 13.0627 9.07242 13.6438C9.07242 14.225 9.5437 14.6849 10.1252 14.6849H17.9867C18.5682 14.6849 19.0396 14.225 19.0396 13.6438C19.0396 13.0627 18.5682 12.6028 17.9867 12.6028Z" fill="black"/>
<path d="M6.21418 14.7298C6.79564 14.7298 7.26701 14.2587 7.26701 13.6775C7.26701 13.0962 6.79564 12.6251 6.21418 12.6251C5.63271 12.6251 5.16135 13.0962 5.16135 13.6775C5.16135 14.2587 5.63271 14.7298 6.21418 14.7298Z" fill="black"/>
<path d="M17.9867 16.7671H10.1252C9.54381 16.7671 9.07242 17.2271 9.07242 17.8082C9.07242 18.3894 9.5437 18.8493 10.1252 18.8493H17.9867C18.5682 18.8493 19.0396 18.3894 19.0396 17.8082C19.0396 17.2271 18.5682 16.7671 17.9867 16.7671Z" fill="black"/>
<path d="M6.21418 18.8693C6.79564 18.8693 7.26701 18.3981 7.26701 17.8169C7.26701 17.2357 6.79564 16.7645 6.21418 16.7645C5.63271 16.7645 5.16135 17.2357 5.16135 17.8169C5.16135 18.3981 5.63271 18.8693 6.21418 18.8693Z" fill="black"/>
<path d="M17.9868 4.38356H5.75095C5.16952 4.38356 4.69812 4.8434 4.69812 5.42466C4.69812 6.00592 5.1694 6.46575 5.75095 6.46575H17.9869C18.5683 6.46575 19.0397 6.00592 19.0397 5.42466C19.0396 4.8434 18.5682 4.38356 17.9868 4.38356Z" fill="black"/>
</svg>
