<svg width="24" height="24" viewBox="0 0 24 24" fill="none" xmlns="http://www.w3.org/2000/svg">
<path d="M12 6.74999V2.92499C12 2.69999 11.85 2.54999 11.625 2.54999H1.875C1.65 2.54999 1.5 2.69999 1.5 2.92499V21.15C1.5 21.375 1.65 21.525 1.875 21.525H22.2C22.425 21.525 22.575 21.375 22.575 21.15V7.12499C22.5 6.89999 22.35 6.74999 22.125 6.74999H12ZM5.325 19.35H3.975C3.75 19.35 3.6 19.2 3.6 18.975V17.55C3.6 17.4 3.75 17.25 3.975 17.25H5.4C5.625 17.25 5.775 17.4 5.775 17.625V19.05C5.7 19.2 5.55 19.35 5.325 19.35ZM5.325 15.15H3.975C3.75 15.15 3.6 15 3.6 14.775V13.35C3.6 13.125 3.75 12.975 3.975 12.975H5.4C5.625 12.975 5.775 13.125 5.775 13.35V14.775C5.7 15 5.55 15.15 5.325 15.15ZM5.325 10.95H3.975C3.75 10.95 3.6 10.8 3.6 10.575V9.14999C3.6 8.92499 3.75 8.77499 3.975 8.77499H5.4C5.625 8.77499 5.775 8.92499 5.775 9.14999V10.575C5.7 10.8 5.55 10.95 5.325 10.95ZM5.325 6.74999H3.975C3.75 6.74999 3.6 6.59999 3.6 6.37499V5.02499C3.6 4.79999 3.75 4.64999 3.975 4.64999H5.4C5.625 4.64999 5.775 4.79999 5.775 5.02499V6.44999C5.7 6.59999 5.55 6.74999 5.325 6.74999ZM9.525 19.35H8.1C7.875 19.35 7.725 19.2 7.725 18.975V17.55C7.725 17.325 7.875 17.175 8.1 17.175H9.525C9.75 17.175 9.9 17.325 9.9 17.55V18.975C9.9 19.2 9.75 19.35 9.525 19.35ZM9.525 15.15H8.1C7.875 15.15 7.725 15 7.725 14.775V13.35C7.725 13.125 7.875 12.975 8.1 12.975H9.525C9.75 12.975 9.9 13.125 9.9 13.35V14.775C9.9 15 9.75 15.15 9.525 15.15ZM9.525 10.95H8.1C7.875 10.95 7.725 10.8 7.725 10.575V9.14999C7.725 8.92499 7.875 8.77499 8.1 8.77499H9.525C9.75 8.77499 9.9 8.92499 9.9 9.14999V10.575C9.9 10.8 9.75 10.95 9.525 10.95ZM9.525 6.74999H8.1C7.875 6.74999 7.725 6.59999 7.725 6.37499V5.02499C7.725 4.79999 7.875 4.64999 8.1 4.64999H9.525C9.75 4.64999 9.9 4.79999 9.9 5.02499V6.44999C9.9 6.59999 9.75 6.74999 9.525 6.74999ZM20.4 19.35H12V17.25H13.725C13.95 17.25 14.1 17.1 14.1 16.875V15.45C14.1 15.225 13.95 15.075 13.725 15.075H12V12.975H13.725C13.95 12.975 14.1 12.825 14.1 12.6V11.175C14.1 10.95 13.95 10.8 13.725 10.8H12V8.69999H20.4V19.35ZM17.925 10.95H16.5C16.275 10.95 16.125 11.1 16.125 11.325V12.75C16.125 12.975 16.275 13.125 16.5 13.125H17.925C18.15 13.125 18.3 12.975 18.3 12.75V11.325C18.3 11.1 18.15 10.95 17.925 10.95ZM17.925 15.15H16.5C16.275 15.15 16.125 15.3 16.125 15.525V16.95C16.125 17.175 16.275 17.325 16.5 17.325H17.925C18.15 17.325 18.3 17.175 18.3 16.95V15.525C18.3 15.3 18.15 15.15 17.925 15.15Z" fill="#222A30"/>
</svg>
