<svg width="24" height="24" viewBox="0 0 24 24" fill="none" xmlns="http://www.w3.org/2000/svg">
<path d="M16.9655 0C15.0345 0 13.3793 0.689655 12 2.06897L8.96552 5.10345C8.4138 5.65517 8.4138 6.48276 8.96552 7.03448C9.51724 7.58621 10.3448 7.58621 10.8966 7.03448L13.931 4C15.5862 2.34483 18.3448 2.34483 20 4C20.8276 4.82759 21.2414 5.93103 21.2414 7.03448C21.2414 8.13793 20.8276 9.24138 20 10.069L16.9655 13.1034C16.4138 13.6552 16.4138 14.4828 16.9655 15.0345C17.2414 15.3103 17.6552 15.4483 17.931 15.4483C18.2069 15.4483 18.6207 15.3103 18.8966 15.0345L21.931 12C23.3103 10.6207 24 8.96552 24 7.03448C24 5.10345 23.3103 3.44828 21.931 2.06897C20.5517 0.689655 18.8966 0 16.9655 0Z" fill="black"/>
<path d="M7.03448 11.0345C7.58621 10.4828 7.58621 9.65517 7.03448 9.10344C6.48276 8.55172 5.65517 8.55172 5.10345 9.10344L2.06897 12C0.689655 13.3793 0 15.0345 0 16.9655C0 18.8965 0.689655 20.5517 2.06897 21.931C3.44828 23.3103 5.10345 24 7.03448 24C8.96552 24 10.6207 23.3103 12 21.931L15.0345 18.8965C15.5862 18.3448 15.5862 17.5172 15.0345 16.9655C14.4828 16.4138 13.6552 16.4138 13.1034 16.9655L10.069 20C8.41379 21.6552 5.65517 21.6552 4 20C3.17241 19.1724 2.75862 18.069 2.75862 16.9655C2.75862 15.8621 3.17241 14.7586 4 13.931L7.03448 11.0345Z" fill="black"/>
<path d="M8.00001 16C8.27587 16.2759 8.68966 16.4138 8.96552 16.4138C9.24138 16.4138 9.65518 16.2759 9.93104 16L15.8621 10.069C16.4138 9.51726 16.4138 8.68967 15.8621 8.13794C15.3103 7.58622 14.4828 7.58622 13.931 8.13794L8.00001 14.069C7.44828 14.4828 7.44828 15.4483 8.00001 16Z" fill="black"/>
</svg>
